<!-- Created with Inkscape (http://www.inkscape.org/) -->
<svg xmlns:rdf="http://www.w3.org/1999/02/22-rdf-syntax-ns#" xmlns="http://www.w3.org/2000/svg" height="110" width="110" version="1.1" xmlns:cc="http://creativecommons.org/ns#" xmlns:dc="http://purl.org/dc/elements/1.1/">
<metadata>
<rdf:RDF>
<cc:Work rdf:about="">
<dc:format>image/svg+xml</dc:format>
<dc:type rdf:resource="http://purl.org/dc/dcmitype/StillImage"/>
<dc:title/>
</cc:Work>
</rdf:RDF>
</metadata>
<g transform="translate(-331.19104,-466.22773)">
<g display="block" transform="translate(136.06819,472.23087)">
<path fill="#000" d="m250.1,83.28c-0.4993,2.033-1.106,3.441-1.819,4.226-0.7133,0.7845-1.658,1.605-2.835,2.461-1.284,0.8915-2.799,1.658-4.547,2.3-1.747,0.6062-3.691,0.7489-5.83,0.4279l-15.03-2.086c-0.6063-0.0713-1.159-0.0713-1.658,0-0.4636,0.07134-0.9094,0.107-1.337,0.107-0.7489,0-1.712,0.1783-2.888,0.5349-1.141,0.321-2.033,0.8024-2.675,1.444l-5.189-8.505c0.6419-0.7132,1.212-1.212,1.712-1.498,0.4992-0.2853,1.088-0.5884,1.765-0.9093,2.068-0.9628,4.279-1.551,6.633-1.765,0.9985-0.0713,1.979-0.08913,2.942-0.0535,0.9628,0.0357,1.961,0.000039,2.995-0.107,1.926,0.321,3.851,0.6241,5.777,0.9093,1.961,0.2497,3.923,0.5171,5.884,0.8024,2.14,0.00002,3.584-0.214,4.333-0.6419,0.3922-0.2139,1.016-0.6062,1.872-1.177,0.8558-0.5706,1.712-1.409,2.568-2.514-1.89-0.2139-3.816-0.5705-5.777-1.07-1.961-0.5349-3.691-1.088-5.189-1.658l5.563-13.8c-2.782-1.605-4.725-2.888-5.83-3.851-1.106-0.9984-1.979-2.14-2.621-3.423-0.9272-1.64-1.533-3.227-1.819-4.761-0.2496-1.533-0.3566-2.906-0.3209-4.119,0.0356-2.14,0.5349-4.493,1.498-7.061,0.9985-2.603,2.853-4.921,5.563-6.954,2.247-1.712,4.44-3.477,6.579-5.296,2.14-1.819,4.261-3.94,6.365-6.365-2.639-1.355-3.958-3.512-3.958-6.472-0.00006-1.997,0.6953-3.709,2.086-5.135,1.426-1.426,3.156-2.14,5.189-2.14,1.997,0.0000978,3.709,0.7133,5.135,2.14s2.14,3.138,2.14,5.135c-0.00006,2.924-1.32,5.082-3.958,6.472,2.068,2.425,4.154,4.547,6.258,6.365,2.14,1.819,4.368,3.584,6.686,5.296,2.674,2.033,4.493,4.351,5.456,6.954,0.9628,2.568,1.48,4.921,1.551,7.061-0.00008,1.213-0.1249,2.585-0.3744,4.119-0.2497,1.533-0.8203,3.12-1.712,4.761-0.7133,1.284-1.623,2.425-2.728,3.423-1.07,0.9629-2.978,2.247-5.724,3.851l5.563,13.8c-1.569,0.5706-3.334,1.123-5.296,1.658-1.961,0.4993-3.851,0.8559-5.67,1.07,0.8201,1.106,1.658,1.944,2.514,2.514,0.8558,0.5706,1.498,0.9629,1.926,1.177,0.7488,0.4279,2.193,0.6419,4.333,0.6419,1.926-0.2853,3.851-0.5527,5.777-0.8024,1.961-0.2853,3.923-0.5884,5.884-0.9093,0.9628,0.107,1.926,0.1427,2.889,0.107,0.9984-0.03562,2.015-0.0178,3.049,0.0535,2.282,0.214,4.493,0.8024,6.633,1.765,0.6418,0.321,1.212,0.6241,1.712,0.9093,0.5348,0.2853,1.123,0.7846,1.765,1.498l-5.242,8.505c-0.642-0.6419-1.551-1.123-2.728-1.444-1.141-0.3566-2.068-0.5349-2.782-0.5349-0.4637,0-0.9451-0.03564-1.444-0.107-0.4637-0.0713-0.9986-0.0713-1.605,0l-14.98,2.086c-2.14,0.3209-4.137,0.1783-5.991-0.4279-1.819-0.6062-3.316-1.409-4.493-2.407-1.177-0.9628-2.122-1.783-2.835-2.461-0.6776-0.7132-1.248-2.086-1.712-4.119"/>
<path fill="#FFF" d="m264.4,73.12-2.247-5.456c-3.637-0.7845-7.631-1.177-11.98-1.177-4.315,0.000039-8.273,0.3923-11.87,1.177l-2.247,5.403c4.422-1.105,9.129-1.658,14.12-1.658,4.921,0.000039,9.664,0.5706,14.23,1.712"/>
<path fill="#FFF" d="m259.9,62.1-1.551-3.744,0-1.444c-2.71-0.3922-5.438-0.5884-8.184-0.5884-2.675,0.00004-5.385,0.1962-8.131,0.5884l-0.0535,1.444-1.444,3.744c3.031-0.5349,6.241-0.8023,9.628-0.8024,3.423,0.000058,6.668,0.2675,9.735,0.8024"/>
<path fill="#FFF" d="m258,82.32c-1.426-1.07-2.853-2.764-4.279-5.082h-1.712c-0.00006,1.747,0.41,3.441,1.23,5.082h4.761"/>
<path fill="#FFF" d="m247,82.32c0.8201-1.747,1.23-3.441,1.23-5.082h-1.712c-1.391,2.282-2.835,3.976-4.333,5.082h4.814"/>
<path fill="#FFF" d="m248.1,43.48,0,4.547c-0.00006,1.32,0.6597,1.979,1.979,1.979,1.319,0.000059,1.979-0.6597,1.979-1.979v-4.6h4.814c1.248,0.000059,1.872-0.6418,1.872-1.926-0.00006-1.284-0.6241-1.926-1.872-1.926h-4.814v-4.814c-0.00006-1.319-0.6598-1.979-1.979-1.979-1.32,0.000059-1.979,0.6598-1.979,1.979v4.814h-4.707c-1.248,0.000078-1.872,0.642-1.872,1.926-0.00006,1.284,0.624,1.926,1.872,1.926l4.707,0.0535"/>
</g>
</g>
</svg>
