<!-- Created with Inkscape (http://www.inkscape.org/) -->
<svg xmlns:rdf="http://www.w3.org/1999/02/22-rdf-syntax-ns#" xmlns="http://www.w3.org/2000/svg" height="110" width="110" version="1.1" xmlns:cc="http://creativecommons.org/ns#" xmlns:dc="http://purl.org/dc/elements/1.1/">
<metadata>
<rdf:RDF>
<cc:Work rdf:about="">
<dc:format>image/svg+xml</dc:format>
<dc:type rdf:resource="http://purl.org/dc/dcmitype/StillImage"/>
<dc:title/>
</cc:Work>
</rdf:RDF>
</metadata>
<g transform="translate(-328.90862,-467.98982)">
<g display="block" transform="translate(-67.514961,473.51463)">
<path fill="#000" d="m421.4,76.33-1.765-10c-0.0357,0.000039-0.0892-0.07129-0.1605-0.214-0.1783-0.2496-0.6954-0.5705-1.551-0.9628-0.8202-0.4279-1.783-1.141-2.888-2.14-1.569-1.319-2.799-2.389-3.691-3.209-0.8558-0.8202-1.64-1.712-2.354-2.675-2.175-2.995-3.388-6.615-3.637-10.86-0.3566-4.101,1.302-8.184,4.975-12.25,3.709-4.065,8.719-5.973,15.03-5.724,2.354,0.1427,5.117,0.7133,8.291,1.712,1.034,0.428,2.086,0.8559,3.156,1.284,1.105,0.3923,2.193,0.8024,3.263,1.23,0.5705,0.2854,1.07,0.5706,1.498,0.8559-0.1784-0.7488-0.2675-1.498-0.2675-2.247-0.00004-2.781,0.9806-5.153,2.942-7.114,1.997-1.961,4.386-2.96,7.168-2.995,2.781,0.000078,5.153,0.9986,7.114,2.995,1.961,1.961,2.942,4.315,2.942,7.061-0.00007,0.5706-0.0714,1.32-0.214,2.247,0.4992-0.3209,0.9806-0.5883,1.444-0.8023,1.64-0.7131,3.798-1.551,6.472-2.514,3.067-1.034,5.83-1.622,8.291-1.765,6.312-0.2852,11.3,1.623,14.98,5.724,3.602,4.065,5.278,8.148,5.028,12.25-0.2854,4.244-1.516,7.863-3.691,10.86-0.7133,0.9629-1.516,1.872-2.407,2.728-0.8916,0.8202-2.086,1.872-3.584,3.156-1.177,0.9985-2.175,1.712-2.995,2.14-0.8203,0.3923-1.302,0.7132-1.444,0.9628-0.0357,0.07136-0.0714,0.1248-0.107,0.1605-0.0357,0.0357-0.0536,0.07136-0.0535,0.107l-1.712,10.06,3.53,13.21c-1.783,1.605-5.777,2.924-11.98,3.958-6.205,1.034-13.37,1.551-21.5,1.551-8.273,0.000019-15.55-0.5349-21.82-1.605-6.276-1.105-10.22-2.478-11.82-4.119l3.53-13.05"/>
<path fill="#FFF" d="m453.4,62.15c6.134,0.107,11.16,0.4101,15.08,0.9094,3.923,0.4993,7.453,1.088,10.59,1.765,1.961-1.926,4.137-3.762,6.526-5.51,2.389-1.747,4.065-3.245,5.028-4.493,1.712-2.318,2.567-5.206,2.568-8.666-0.0001-3.174-0.7668-5.83-2.3-7.97-2.746-4.03-6.936-6.044-12.57-6.044-3.281,0.000078-6.704,0.7133-10.27,2.14-3.245,1.284-5.599,2.675-7.061,4.172-3.031,2.924-5.242,6.776-6.633,11.55-0.535,1.64-0.8381,3.727-0.9093,6.258-0.0357,2.532-0.0535,4.493-0.0535,5.884"/>
<path fill="#FFF" d="m477.9,71.41c-6.562-1.819-15.3-2.728-26.21-2.728-10.98,0.000039-19.83,0.9272-26.53,2.782l0.8024,5.403c6.74-1.747,15.32-2.621,25.73-2.621,10.38,0.00004,18.83,0.8559,25.35,2.568l0.8558-5.403"/>
<path fill="#FFF" d="m479.3,87.4-1.605-6.312c-6.954-1.605-15.69-2.407-26.21-2.407-10.41,0.00004-19.11,0.8024-26.1,2.407l-1.712,6.365c6.775-2.068,16.07-3.102,27.87-3.102,5.67,0.00002,10.93,0.2853,15.78,0.8559s8.844,1.302,11.98,2.193"/>
<path fill="#FFF" d="m451.4,48.67c0.2496-0.9984,0.4635-1.694,0.6419-2.086,0.3566-1.391,0.7666-2.568,1.23-3.53,0.2139-0.6062,0.517-1.302,0.9094-2.086,0.4279-0.8201,0.8736-1.747,1.337-2.782,0.2852-0.6062,0.5883-1.337,0.9093-2.193,0.3209-0.8914,0.6418-1.765,0.9628-2.621,0.2852-0.7131,0.4279-1.48,0.4279-2.3-0.00006-1.747-0.6241-3.227-1.872-4.44-1.248-1.248-2.764-1.872-4.547-1.872-4.244,0.000079-6.365,2.122-6.365,6.365-0.00006,0.8203,0.1426,1.587,0.4279,2.3,0.7845,2.318,1.391,3.923,1.819,4.814,0.4636,1.034,0.8915,1.961,1.284,2.782,0.3922,0.7846,0.731,1.48,1.016,2.086,0.4636,1.177,0.8558,2.354,1.177,3.53,0.0713,0.214,0.2852,0.8916,0.6419,2.033"/>
<path fill="#000" d="m453.3,20.86-3.798,0,0-7.007-4.44,0c-1.213,0.000078-1.819-0.5883-1.819-1.765v-0.05348c-0.00006-1.177,0.6062-1.765,1.819-1.765h4.44v-4.547c-0.00005-1.248,0.6418-1.872,1.926-1.872,1.248,0.0000978,1.872,0.6242,1.872,1.872v4.547h4.6c1.177,0.000098,1.765,0.5885,1.765,1.765v0.05348c-0.00006,1.177-0.5884,1.765-1.765,1.765l-4.547,0.05348-0.0535,6.954"/>
<path fill="#000" d="m451.4,39.53c-0.0714-0.3565-0.1605-0.6597-0.2674-0.9094-0.214-0.7131-0.3923-1.23-0.5349-1.551-0.107-0.2496-0.2497-0.5527-0.4279-0.9094-0.1784-0.3922-0.3567-0.8023-0.5349-1.23-0.107-0.2496-0.2497-0.5705-0.4279-0.9628-0.1427-0.4279-0.2675-0.8201-0.3744-1.177-0.107-0.3209-0.1605-0.6597-0.1605-1.016-0.00006-1.89,0.9093-2.835,2.728-2.835,1.89,0.000059,2.835,0.9272,2.835,2.782-0.00006,0.4637-0.0714,0.8024-0.214,1.016-0.4993,1.355-0.7668,2.086-0.8024,2.193-0.535,1.07-0.8737,1.765-1.016,2.086-0.2497,0.5706-0.4102,1.088-0.4814,1.551-0.107,0.214-0.1784,0.4102-0.214,0.5884-0.0357,0.1427-0.0714,0.2675-0.107,0.3744"/>
<path fill="#FFF" d="m449.5,62.1c-0.00005-1.426-0.0357-3.388-0.107-5.884-0.0714-2.532-0.3388-4.636-0.8024-6.312-1.462-4.778-3.673-8.63-6.633-11.55-1.533-1.498-3.887-2.888-7.061-4.172-3.637-1.426-7.079-2.14-10.32-2.14-5.634,0.000078-9.807,2.015-12.52,6.044-1.533,2.14-2.3,4.814-2.3,8.024-0.00002,3.495,0.8558,6.365,2.568,8.612,0.8915,1.284,2.603,2.871,5.135,4.761s4.672,3.637,6.419,5.242c3.102-0.6775,6.597-1.266,10.48-1.765,3.923-0.4992,8.969-0.7845,15.14-0.8559"/>
<path fill="#000" d="m445.4,57.98c-4.458,0.07136-8.541,0.3032-12.25,0.6954-3.673,0.3923-6.526,0.9451-8.559,1.658-1.07-1.319-2.318-2.639-3.744-3.958-1.391-1.355-2.621-2.621-3.691-3.798-1.783-1.819-2.675-3.816-2.675-5.991,0-2.674,0.4457-4.636,1.337-5.884,0.9628-1.426,2.443-2.478,4.44-3.156,1.997-0.7131,4.012-1.07,6.044-1.07,2.568,0.000078,5.028,0.5707,7.382,1.712,2.318,1.213,3.851,2.175,4.6,2.889,2.425,2.461,4.315,5.135,5.67,8.024,0.4636,1.07,0.8023,2.568,1.016,4.493,0.2496,1.89,0.3922,3.352,0.4279,4.386"/>
<path fill="#000" d="m457.3,57.98c-0.00006-1.034,0.1069-2.496,0.3209-4.386,0.2496-1.926,0.624-3.423,1.123-4.493,1.319-2.888,3.209-5.563,5.67-8.024,0.7132-0.7131,2.247-1.676,4.6-2.889,2.318-1.141,4.796-1.712,7.435-1.712,1.997,0.000078,3.976,0.3567,5.937,1.07,1.997,0.6776,3.495,1.73,4.493,3.156,0.8914,1.213,1.337,3.174,1.337,5.884-0.0001,2.14-0.8738,4.137-2.621,5.991-1.141,1.177-2.372,2.371-3.691,3.584-1.32,1.177-2.585,2.568-3.798,4.172-2.068-0.7132-4.957-1.266-8.666-1.658-3.673-0.3922-7.721-0.624-12.14-0.6954"/>
</g>
</g>
</svg>
