<!-- Created with Inkscape (http://www.inkscape.org/) -->
<svg xmlns:rdf="http://www.w3.org/1999/02/22-rdf-syntax-ns#" xmlns="http://www.w3.org/2000/svg" height="110" width="110" version="1.1" xmlns:cc="http://creativecommons.org/ns#" xmlns:dc="http://purl.org/dc/elements/1.1/">
<metadata>
<rdf:RDF>
<cc:Work rdf:about="">
<dc:format>image/svg+xml</dc:format>
<dc:type rdf:resource="http://purl.org/dc/dcmitype/StillImage"/>
<dc:title/>
</cc:Work>
</rdf:RDF>
</metadata>
<g transform="translate(-329.42584,-467.34795)">
<g display="block" transform="translate(233.79866,473.94257)">
<path fill="#000" d="m153.5,13.48c5.599,0.3567,10.79,1.801,15.57,4.333,4.778,2.532,8.844,5.777,12.2,9.735,2.354,2.782,4.564,6.134,6.633,10.06,2.104,3.923,3.78,8.077,5.028,12.46,1.426,5.099,2.318,10.47,2.675,16.1,0.3922,5.599,0.5883,10.79,0.5884,15.57v11.66c-0.00012,0.00002-2.782,0.00002-8.345,0-5.527,0.00002-12.71,0.00002-21.56,0h-35.89c-0.321,0.00002-0.4814-0.8737-0.4814-2.621,0.0356-1.747,0.1604-3.156,0.3744-4.226,0.1426-0.8558,0.4814-2.068,1.016-3.637,0.5349-1.569,1.426-3.477,2.675-5.724,0.5705-1.141,1.926-2.799,4.065-4.975,2.14-2.211,4.6-4.761,7.382-7.649,1.605-1.64,2.853-3.709,3.744-6.205,0.9271-2.496,1.319-4.761,1.177-6.793-1.319,1.07-2.764,1.944-4.333,2.621-7.56,2.71-13.03,6.633-16.42,11.77-0.2497,0.321-1.052,1.765-2.407,4.333-0.7132,1.355-1.319,2.282-1.819,2.782-0.6776,0.6776-1.658,1.052-2.942,1.123-1.997,0.107-3.548-0.8558-4.654-2.888-1.498,0.4279-2.835,0.6063-4.012,0.5349-1.997-0.7488-3.441-1.551-4.333-2.407-1.819-1.819-3.013-3.637-3.584-5.456-0.5349-1.819-0.8024-3.78-0.8024-5.884-0.00002-2.995,1.854-6.954,5.563-11.87,4.351-5.67,6.668-9.985,6.954-12.94-0.00002-1.284,0.1248-2.728,0.3744-4.333,0.2139-1.105,0.6597-2.175,1.337-3.209,0.4636-0.7131,0.7667-1.195,0.9094-1.444,0.1783-0.2852,0.4814-0.6953,0.9093-1.23,0.3209-0.4278,0.5884-0.7488,0.8024-0.9628,0.2139-0.2496,0.4814-0.5705,0.8024-0.9628,0.3922-0.4635,0.8915-0.9984,1.498-1.605-1.89-5.206-2.657-10.57-2.3-16.1,7.096,2.532,13.05,6.508,17.87,11.93,1.177-4.03,3.495-7.292,6.954-9.789,2.853,1.997,5.117,4.636,6.793,7.917"/>
<path fill="#FFF" d="m122,67.72c0.1426-0.3209,0.3744-0.8023,0.6954-1.444,0.6062-1.498,0.9093-2.389,0.9094-2.675-0.0714-0.9985-0.5884-1.498-1.551-1.498-0.7132,0.000039-1.551,1.016-2.514,3.049-0.1427,0.2853-0.3566,0.535-0.6419,0.7489-0.9629,0.9985-0.8202,1.837,0.4279,2.514,1.141,0.6776,2.033,0.4458,2.675-0.6954"/>
<path fill="#FFF" d="m153.6,47.87c2.496-3.281,3.726-6.936,3.691-10.97-0.1427-1.177-0.8203-1.765-2.033-1.765-1.64,0.000078-2.282,0.6063-1.926,1.819,0.1069,1.961-0.0892,3.584-0.5884,4.868-0.8202,2.033-1.73,3.548-2.728,4.547-0.535,1.07-0.214,1.854,0.9628,2.354,1.141,0.535,2.015,0.2497,2.621-0.8559"/>
<path fill="#FFF" d="m139.6,21.77c-0.1784-1.284-0.1427-2.674,0.107-4.172-2.14,0.428-4.154,1.427-6.044,2.995-1.141,0.6063-1.409,1.444-0.8024,2.514,0.6062,1.106,1.444,1.284,2.514,0.5349,0.7488-0.3922,1.426-0.7488,2.033-1.07,0.6419-0.3565,1.373-0.624,2.193-0.8024"/>
<path fill="#FFF" d="m189.7,89.59c-0.0358,0.000019-0.0001-0.9628,0.107-2.888,0.1069-1.961,0.1604-4.065,0.1605-6.312,0.0356-4.458,0.0356-9.058,0-13.8-0.0358-4.778-0.6776-9.539-1.926-14.28-1.213-4.564-2.55-8.451-4.012-11.66-1.462-3.245-3.049-6.044-4.761-8.398-2.568-3.851-6.062-7.114-10.48-9.789-4.422-2.674-9.04-4.422-13.85-5.242,0.1426,0.8203,0.1782,1.658,0.107,2.514-0.0357,0.8559-0.0179,1.676,0.0535,2.461,3.459,1.177,6.722,2.639,9.789,4.386s5.313,3.637,6.74,5.67c1.712,2.354,3.299,5.153,4.761,8.398,1.462,3.209,2.799,7.096,4.012,11.66,1.212,4.743,1.836,9.504,1.872,14.28,0.0356,4.743,0.0534,9.343,0.0535,13.8-0.00008,2.247-0.0536,4.351-0.1605,6.312-0.1071,1.926-0.1071,2.889,0,2.888h7.542"/>
<path fill="#FFF" d="m117.4,58.19c1.034-0.7132,1.141-1.569,0.3209-2.568-0.8559-0.8202-1.801-0.8915-2.835-0.214-2.175,1.426-3.334,3.299-3.477,5.617,0.0357,1.177,0.731,1.73,2.086,1.658,1.284-0.1069,1.908-0.7666,1.872-1.979,0.2853-1.141,0.9628-1.979,2.033-2.514"/>
<path fill="#FFF" d="m130.9,31.56c0.7845-0.3922,1.177-0.5883,1.177-0.5884,1.07-0.4278,1.409-1.212,1.016-2.354-0.428-1.07-1.248-1.426-2.461-1.07-4.208,1.533-7.114,4.351-8.719,8.452-0.2496,1.177,0.1783,1.979,1.284,2.407,1.105,0.3567,1.854-0.0356,2.247-1.177,0.2853-0.6062,0.4992-0.9984,0.6419-1.177,0.3922,0.321,0.9093,0.535,1.551,0.6419,2.175,0.3567,3.441-0.6062,3.798-2.888,0.107-0.7845-0.0713-1.533-0.5349-2.247"/>
</g>
</g>
</svg>
