<!-- Created with Inkscape (http://www.inkscape.org/) -->
<svg xmlns:rdf="http://www.w3.org/1999/02/22-rdf-syntax-ns#" xmlns="http://www.w3.org/2000/svg" height="110" width="110" version="1.1" xmlns:cc="http://creativecommons.org/ns#" xmlns:dc="http://purl.org/dc/elements/1.1/">
<metadata>
<rdf:RDF>
<cc:Work rdf:about="">
<dc:format>image/svg+xml</dc:format>
<dc:type rdf:resource="http://purl.org/dc/dcmitype/StillImage"/>
<dc:title/>
</cc:Work>
</rdf:RDF>
</metadata>
<g transform="translate(-344.00208,-466.14442)">
<g display="block" transform="translate(348.0043,471.64248)">
<path fill="#000" d="m51.02,93.28-28.89,0c-1.426-3.566-2.14-7.293-2.14-11.18-0.000019-6.597,1.872-12.52,5.617-17.76,3.744-5.242,8.558-8.986,14.44-11.23-2.532-1.177-4.6-2.942-6.205-5.296-1.569-2.389-2.354-5.082-2.354-8.077-0.00004-3.744,1.248-6.989,3.744-9.735s5.563-4.333,9.2-4.761c-2.889-2.175-4.333-5.046-4.333-8.612-0.000039-2.995,1.052-5.563,3.156-7.703,2.14-2.14,4.725-3.209,7.756-3.209,2.995,0.0000978,5.563,1.07,7.703,3.209,2.14,2.14,3.209,4.707,3.209,7.703-0.000059,3.566-1.444,6.437-4.333,8.612,3.637,0.428,6.704,2.015,9.2,4.761s3.744,5.991,3.744,9.735c-0.000078,2.996-0.8203,5.688-2.461,8.077-1.605,2.354-3.655,4.119-6.151,5.296,5.884,2.247,10.7,5.991,14.44,11.23,3.744,5.242,5.616,11.16,5.617,17.76-0.000098,3.851-0.6955,7.578-2.086,11.18h-28.89"/>
</g>
</g>
</svg>
