<!-- Created with Inkscape (http://www.inkscape.org/) -->
<svg xmlns:rdf="http://www.w3.org/1999/02/22-rdf-syntax-ns#" xmlns="http://www.w3.org/2000/svg" height="110" width="110" version="1.1" xmlns:cc="http://creativecommons.org/ns#" xmlns:dc="http://purl.org/dc/elements/1.1/">
<metadata>
<rdf:RDF>
<cc:Work rdf:about="">
<dc:format>image/svg+xml</dc:format>
<dc:type rdf:resource="http://purl.org/dc/dcmitype/StillImage"/>
<dc:title/>
</cc:Work>
</rdf:RDF>
</metadata>
<g transform="translate(-325.52102,-468.1503)">
<g display="block" transform="translate(-170.51675,474.42399)">
<path fill="#000" d="m593.2,26.1c-2.033,0.000078-3.762-0.6953-5.189-2.086-1.426-1.426-2.14-3.156-2.14-5.189-0.0001-1.997,0.7131-3.709,2.14-5.135,1.426-1.462,3.156-2.193,5.189-2.193,1.997,0.000097,3.709,0.7311,5.135,2.193,1.426,1.427,2.14,3.138,2.14,5.135-0.0001,2.033-0.7133,3.762-2.14,5.189-1.427,1.391-3.138,2.086-5.135,2.086"/>
<path fill="#000" d="m508.8,26.1c-2.033,0.000078-3.762-0.6953-5.189-2.086-1.391-1.426-2.086-3.156-2.086-5.189-0.00002-1.997,0.6954-3.709,2.086-5.135,1.426-1.462,3.156-2.193,5.189-2.193,2.033,0.000097,3.762,0.7311,5.189,2.193,1.426,1.427,2.14,3.138,2.14,5.135-0.00001,2.033-0.7132,3.762-2.14,5.189-1.426,1.391-3.156,2.086-5.189,2.086"/>
<path fill="#000" d="m573.5,20.22c-2.033,0.000098-3.762-0.6953-5.189-2.086-1.391-1.426-2.086-3.156-2.086-5.189-0.00008-1.997,0.6953-3.709,2.086-5.135,1.426-1.426,3.156-2.14,5.189-2.14,2.033,0.0001173,3.762,0.7133,5.189,2.14,1.426,1.427,2.14,3.138,2.14,5.135-0.00008,2.033-0.7133,3.762-2.14,5.189-1.427,1.391-3.156,2.086-5.189,2.086"/>
<path fill="#000" d="m528.5,20.22c-2.033,0.000098-3.762-0.6953-5.189-2.086-1.426-1.426-2.14-3.156-2.14-5.189-0.00002-1.997,0.7132-3.709,2.14-5.135,1.426-1.426,3.156-2.14,5.189-2.14,1.997,0.0001173,3.709,0.7133,5.135,2.14s2.14,3.138,2.14,5.135c-0.00004,2.033-0.7133,3.762-2.14,5.189-1.426,1.391-3.138,2.086-5.135,2.086"/>
<path fill="#000" d="m583.9,89.11c-1.747,1.533-5.67,2.817-11.77,3.851-6.098,1.034-13.12,1.551-21.08,1.551-8.095,0.000019-15.21-0.5349-21.34-1.605-6.134-1.07-10-2.407-11.61-4.012l3.37-12.84-1.498-8.398-4.707-8.184-4.547-33.27,2.621-1.016,14.66,24.71,0.321-29.42,3.637-0.6419,11.18,29.58,5.991-31.83h3.691l5.991,31.72,11.07-29.47,3.691,0.6419,0.3209,29.42,14.71-24.77,2.514,1.177-4.44,33.11-4.761,8.184-1.498,8.505,3.477,13"/>
<path fill="#FFF" d="m578.8,87.4-1.605-6.312c-6.954-1.605-15.69-2.407-26.21-2.407-10.41,0.00004-19.11,0.8024-26.1,2.407l-1.712,6.365c6.775-2.068,16.07-3.102,27.87-3.102,5.67,0.00002,10.93,0.2853,15.78,0.8559s8.844,1.302,11.98,2.193"/>
<path fill="#FFF" d="m577.4,71.41c-6.562-1.819-15.3-2.728-26.21-2.728-10.98,0.000039-19.83,0.9272-26.53,2.782l0.8024,5.403c6.74-1.747,15.32-2.621,25.73-2.621,10.38,0.00004,18.83,0.8559,25.35,2.568l0.8558-5.403"/>
<path fill="#000" d="m551,17.54c-2.033,0.000079-3.762-0.7131-5.189-2.14-1.391-1.426-2.086-3.156-2.086-5.189-0.00003-1.997,0.6954-3.709,2.086-5.135,1.426-1.426,3.156-2.14,5.189-2.14,1.997,0.0001173,3.709,0.7133,5.135,2.14,1.462,1.427,2.193,3.138,2.193,5.135-0.00008,2.033-0.7311,3.762-2.193,5.189-1.426,1.427-3.138,2.14-5.135,2.14"/>
<path fill="#FFF" d="m581.2,61.83c-2.96-1.07-7.132-1.943-12.52-2.621-5.349-0.7132-11.27-1.07-17.76-1.07-6.348,0.000059-12.16,0.3388-17.44,1.016-5.278,0.6419-9.432,1.498-12.46,2.568l2.675,4.868c2.995-0.8915,6.882-1.533,11.66-1.926,4.778-0.3922,10-0.5884,15.67-0.5884,5.67,0.000039,10.91,0.1962,15.73,0.5884,4.814,0.3923,8.719,1.052,11.71,1.979l2.728-4.814"/>
</g>
</g>
</svg>
