<!-- Created with Inkscape (http://www.inkscape.org/) -->
<svg xmlns:rdf="http://www.w3.org/1999/02/22-rdf-syntax-ns#" xmlns="http://www.w3.org/2000/svg" height="110" width="110" version="1.1" xmlns:cc="http://creativecommons.org/ns#" xmlns:dc="http://purl.org/dc/elements/1.1/">
<metadata>
<rdf:RDF>
<cc:Work rdf:about="">
<dc:format>image/svg+xml</dc:format>
<dc:type rdf:resource="http://purl.org/dc/dcmitype/StillImage"/>
<dc:title/>
</cc:Work>
</rdf:RDF>
</metadata>
<g transform="translate(-331.19104,-466.22772)">
<g transform="translate(135.85423,272.03484)">
<path fill="#000" d="m250.3,283.5c-0.4993,2.033-1.106,3.441-1.819,4.226-0.7133,0.7846-1.658,1.605-2.835,2.461-1.284,0.8915-2.799,1.658-4.547,2.3-1.747,0.6063-3.691,0.7489-5.83,0.4279l-15.03-2.086c-0.6063-0.0713-1.159-0.0713-1.658,0-0.4636,0.0713-0.9094,0.107-1.337,0.107-0.7489,0-1.712,0.1783-2.888,0.5349-1.141,0.321-2.033,0.8024-2.675,1.444l-5.189-8.505c0.6419-0.7132,1.212-1.212,1.712-1.498,0.4992-0.2853,1.088-0.5884,1.765-0.9093,2.068-0.9628,4.279-1.551,6.633-1.765,0.9985-0.0713,1.979-0.0891,2.942-0.0535,0.9628,0.0357,1.961,0.00002,2.995-0.107,1.926,0.321,3.851,0.6241,5.777,0.9094,1.961,0.2496,3.923,0.5171,5.884,0.8024,2.14,0.00004,3.584-0.2139,4.333-0.6419,0.3922-0.2139,1.016-0.6062,1.872-1.177,0.8558-0.5706,1.712-1.409,2.568-2.514-1.89-0.2139-3.816-0.5705-5.777-1.07-1.961-0.5349-3.691-1.088-5.189-1.658l5.563-13.8c-2.782-1.605-4.725-2.888-5.83-3.851-1.106-0.9984-1.979-2.14-2.621-3.423-0.9272-1.64-1.533-3.227-1.819-4.761-0.2496-1.533-0.3566-2.906-0.3209-4.119,0.0356-2.14,0.5349-4.493,1.498-7.061,0.9985-2.603,2.853-4.921,5.563-6.954,2.247-1.712,4.44-3.477,6.579-5.296,2.14-1.819,4.261-3.94,6.365-6.365-2.639-1.355-3.958-3.512-3.958-6.472-0.00005-1.997,0.6953-3.709,2.086-5.135,1.426-1.426,3.156-2.14,5.189-2.14,1.997,0.0001,3.709,0.7133,5.135,2.14,1.426,1.426,2.14,3.138,2.14,5.135-0.00006,2.924-1.32,5.082-3.958,6.472,2.068,2.425,4.154,4.547,6.258,6.365,2.14,1.819,4.368,3.584,6.686,5.296,2.674,2.033,4.493,4.351,5.456,6.954,0.9628,2.568,1.48,4.921,1.551,7.061-0.00008,1.213-0.1249,2.585-0.3744,4.119-0.2497,1.533-0.8203,3.12-1.712,4.761-0.7133,1.284-1.623,2.425-2.728,3.423-1.07,0.9629-2.978,2.247-5.724,3.851l5.563,13.8c-1.569,0.5706-3.334,1.123-5.296,1.658-1.961,0.4993-3.851,0.8559-5.67,1.07,0.8201,1.106,1.658,1.944,2.514,2.514,0.8558,0.5706,1.498,0.9629,1.926,1.177,0.7488,0.428,2.193,0.6419,4.333,0.6419,1.926-0.2853,3.851-0.5527,5.777-0.8024,1.961-0.2853,3.923-0.5884,5.884-0.9094,0.9628,0.107,1.926,0.1427,2.889,0.107,0.9984-0.0356,2.015-0.0178,3.049,0.0535,2.282,0.214,4.493,0.8024,6.633,1.765,0.6418,0.321,1.212,0.6241,1.712,0.9093,0.5348,0.2853,1.123,0.7846,1.765,1.498l-5.242,8.505c-0.642-0.6419-1.551-1.123-2.728-1.444-1.141-0.3566-2.068-0.5349-2.782-0.5349-0.4637,0-0.9451-0.0357-1.444-0.107-0.4637-0.0713-0.9986-0.0713-1.605,0l-14.98,2.086c-2.14,0.321-4.137,0.1783-5.991-0.4279-1.819-0.6062-3.316-1.409-4.493-2.407-1.177-0.9628-2.122-1.783-2.835-2.461-0.6776-0.7132-1.248-2.086-1.712-4.119"/>
<path fill="#FFF" d="m250.3,274.5c2.425,0.00004,4.778-0.1961,7.061-0.5884,2.318-0.4279,4.547-0.9271,6.686-1.498-4.172-1.105-8.755-1.658-13.75-1.658-5.064,0.00004-9.646,0.5528-13.75,1.658,2.068,0.5706,4.261,1.07,6.579,1.498,2.318,0.3923,4.707,0.5884,7.168,0.5884"/>
<path fill="#FFF" d="m248.4,277.4-1.712,0c-1.997,3.209-3.905,5.224-5.724,6.044-0.8559,0.428-1.801,0.8202-2.835,1.177-1.034,0.3566-2.229,0.5349-3.584,0.5349-0.2496,0.00002-2.157-0.2853-5.724-0.8558-1.712-0.2496-3.067-0.517-4.065-0.8024-0.9985-0.2853-1.783-0.4636-2.354-0.5349-2.033-0.2496-4.404-0.1426-7.114,0.3209-1.64,0.2853-3.174,0.8024-4.6,1.551l2.568,4.172c0.4279-0.4279,0.9806-0.6954,1.658-0.8024,0.7132-0.1426,1.355-0.2853,1.926-0.4279,1.498-0.2496,2.924-0.2853,4.279-0.107,0.4636,0.107,1.373,0.2496,2.728,0.4279,1.355,0.1427,3.156,0.3923,5.403,0.7489,2.675,0.3923,4.493,0.5884,5.456,0.5884,3.744,0.00002,6.615-0.7132,8.612-2.14,1.212-0.9271,2.354-2.211,3.423-3.851,1.105-1.676,1.658-3.691,1.658-6.044"/>
<path fill="#FFF" d="m250.3,267c4.172,0.00004,8.184,0.4101,12.04,1.23l-2.568-6.579c-3.138-0.4992-6.294-0.7488-9.468-0.7489-3.245,0.00004-6.419,0.2497-9.521,0.7489l-2.568,6.579c3.816-0.8202,7.845-1.23,12.09-1.23"/>
<path fill="#FFF" d="m250.3,257.3c3.459,0.00004,6.775,0.2675,9.949,0.8024,3.495-1.248,6.027-3.192,7.596-5.83,1.355-2.282,2.033-4.796,2.033-7.542-0.00008-1.64-0.4102-3.441-1.23-5.403-0.8202-1.997-2.158-3.798-4.012-5.403-2.104-1.747-4.404-3.655-6.9-5.724-2.496-2.104-4.975-4.547-7.435-7.328-2.496,2.782-4.993,5.224-7.489,7.328-2.496,2.068-4.779,3.976-6.847,5.724-1.89,1.605-3.245,3.406-4.065,5.403-0.7846,1.961-1.177,3.762-1.177,5.403-0.00002,2.746,0.6597,5.26,1.979,7.542,1.533,2.639,4.083,4.582,7.649,5.83,3.138-0.5349,6.454-0.8023,9.949-0.8024"/>
<path fill="#000" d="m248.4,243.6-4.44-0.0535c-1.213,0.00006-1.819-0.6062-1.819-1.819-0.00004-1.212,0.6062-1.819,1.819-1.819h4.44v-4.6c-0.00006-1.248,0.6418-1.872,1.926-1.872,1.248,0.00008,1.872,0.6241,1.872,1.872v4.6h4.6c1.177,0.00006,1.765,0.6063,1.765,1.819-0.00006,1.213-0.5884,1.819-1.765,1.819h-4.6v4.386c-0.00006,1.284-0.6241,1.926-1.872,1.926-1.284,0.00004-1.926-0.6418-1.926-1.926v-4.333"/>
<path fill="#FFF" d="m250.3,216.2c2.425,0.0001,3.637-1.212,3.637-3.637-0.00006-2.425-1.213-3.637-3.637-3.637-2.425,0.0001-3.637,1.213-3.637,3.637-0.00004,2.425,1.212,3.637,3.637,3.637"/>
<path fill="#FFF" d="m252.2,277.4c-0.00006,2.354,0.5348,4.368,1.605,6.044,1.105,1.64,2.282,2.924,3.53,3.851,1.961,1.426,4.832,2.14,8.612,2.14,0.9271,0.00002,2.746-0.1961,5.456-0.5884,2.211-0.3566,3.994-0.6062,5.349-0.7489,1.355-0.1783,2.264-0.3209,2.728-0.4279,1.355-0.1783,2.781-0.1426,4.279,0.107,0.5705,0.1426,1.195,0.2853,1.872,0.4279,0.7131,0.107,1.302,0.3744,1.765,0.8024l2.568-4.172c-1.462-0.7488-3.013-1.266-4.654-1.551-2.71-0.4636-5.082-0.5705-7.114-0.3209-0.6063,0.0713-1.409,0.2496-2.407,0.5349-0.9629,0.2853-2.282,0.5528-3.958,0.8024-3.602,0.5706-5.51,0.8559-5.724,0.8558-1.391,0.00002-2.603-0.1783-3.637-0.5349s-1.961-0.7488-2.782-1.177c-1.89-0.8558-3.816-2.871-5.777-6.044h-1.712"/>
</g>
</g>
</svg>
