<!-- Created with Inkscape (http://www.inkscape.org/) -->
<svg xmlns:rdf="http://www.w3.org/1999/02/22-rdf-syntax-ns#" xmlns="http://www.w3.org/2000/svg" height="110" width="110" version="1.1" xmlns:cc="http://creativecommons.org/ns#" xmlns:dc="http://purl.org/dc/elements/1.1/">
<metadata>
<rdf:RDF>
<cc:Work rdf:about="">
<dc:format>image/svg+xml</dc:format>
<dc:type rdf:resource="http://purl.org/dc/dcmitype/StillImage"/>
<dc:title/>
</cc:Work>
</rdf:RDF>
</metadata>
<g transform="translate(-328.90863,-467.98984)">
<g transform="translate(-67.728906,273.31865)">
<path fill="#000" d="m421.6,276.5-1.765-10c-0.0357,0.00004-0.0892-0.0713-0.1605-0.214-0.1783-0.2496-0.6954-0.5705-1.551-0.9628-0.8202-0.4279-1.783-1.141-2.888-2.14-1.569-1.319-2.799-2.389-3.691-3.209-0.8558-0.8202-1.64-1.712-2.354-2.675-2.175-2.995-3.388-6.615-3.637-10.86-0.3566-4.101,1.302-8.184,4.975-12.25,3.709-4.065,8.719-5.973,15.03-5.724,2.354,0.1427,5.117,0.7133,8.291,1.712,1.034,0.428,2.086,0.8559,3.156,1.284,1.105,0.3923,2.193,0.8024,3.263,1.23,0.5705,0.2854,1.07,0.5706,1.498,0.8559-0.1784-0.7488-0.2675-1.498-0.2675-2.247-0.00004-2.781,0.9806-5.153,2.942-7.114,1.997-1.961,4.386-2.96,7.168-2.995,2.781,0.00008,5.153,0.9986,7.114,2.995,1.961,1.961,2.942,4.315,2.942,7.061-0.00008,0.5706-0.0714,1.32-0.214,2.247,0.4992-0.3209,0.9806-0.5883,1.444-0.8024,1.64-0.7131,3.798-1.551,6.472-2.514,3.067-1.034,5.83-1.622,8.291-1.765,6.312-0.2852,11.3,1.623,14.98,5.724,3.602,4.065,5.278,8.148,5.028,12.25-0.2854,4.244-1.516,7.863-3.691,10.86-0.7133,0.9629-1.516,1.872-2.407,2.728-0.8916,0.8202-2.086,1.872-3.584,3.156-1.177,0.9985-2.175,1.712-2.995,2.14-0.8203,0.3923-1.302,0.7132-1.444,0.9628-0.0357,0.0713-0.0714,0.1248-0.107,0.1605-0.0357,0.0357-0.0536,0.0714-0.0535,0.107l-1.712,10.06,3.53,13.21c-1.783,1.605-5.777,2.924-11.98,3.958-6.205,1.034-13.37,1.551-21.5,1.551-8.273,0.00002-15.55-0.5349-21.82-1.605-6.276-1.105-10.22-2.478-11.82-4.119l3.53-13.05"/>
<path fill="#FFF" d="m424.9,273.3c6.775-1.712,15.76-2.568,26.96-2.568,10.98,0.00004,19.85,0.8202,26.58,2.461l1.337-7.863c-7.168-1.89-16.55-2.835-28.14-2.835-11.66,0.00004-21.02,0.9629-28.08,2.888l1.337,7.917"/>
<path fill="#FFF" d="m479.5,282.8-1.605-6.151c-7.061-1.569-15.8-2.354-26.21-2.354-10.38,0.00004-19.1,0.7846-26.16,2.354l-1.712,6.205c6.811-1.997,16.12-2.995,27.92-2.995,11.73,0.00002,20.99,0.9807,27.76,2.942"/>
<path fill="#FFF" d="m480.9,287.8c-6.883-2.782-16.55-4.172-28.99-4.172-12.91,0.00002-22.68,1.426-29.31,4.279,6.276,2.496,15.99,3.744,29.15,3.744,6.276,0,12-0.3388,17.17-1.016,5.171-0.7132,9.165-1.658,11.98-2.835"/>
<path fill="#FFF" d="m449.8,258.8c-0.0357-1.391-0.0892-2.764-0.1605-4.119-0.0714-1.391-0.3388-2.924-0.8024-4.6-1.462-4.778-3.673-8.63-6.633-11.55-1.533-1.498-3.887-2.888-7.061-4.172-3.637-1.426-7.079-2.14-10.32-2.14-5.634,0.00008-9.807,2.015-12.52,6.044-1.533,2.14-2.3,4.814-2.3,8.024-0.00002,3.495,0.8558,6.365,2.568,8.612,1.034,1.32,2.354,2.639,3.958,3.958,1.605,1.319,3.102,2.514,4.493,3.584,6.241-2.247,15.83-3.459,28.78-3.637"/>
<path fill="#FFF" d="m451.6,248.9c0.2496-0.9984,0.4635-1.694,0.6419-2.086,0.3565-1.391,0.7666-2.568,1.23-3.53,0.2139-0.6062,0.517-1.302,0.9094-2.086,0.4279-0.8201,0.8736-1.747,1.337-2.782,0.2852-0.6062,0.5883-1.337,0.9093-2.193,0.3209-0.8914,0.6418-1.765,0.9628-2.621,0.2852-0.7132,0.4279-1.48,0.4279-2.3-0.00006-1.747-0.6241-3.227-1.872-4.44-1.248-1.248-2.764-1.872-4.547-1.872-4.244,0.00007-6.365,2.122-6.365,6.365-0.00005,0.8203,0.1426,1.587,0.4279,2.3,0.7845,2.318,1.391,3.923,1.819,4.814,0.4636,1.034,0.8915,1.961,1.284,2.782,0.3922,0.7846,0.731,1.48,1.016,2.086,0.4635,1.177,0.8558,2.354,1.177,3.53,0.0713,0.214,0.2852,0.8916,0.6419,2.033"/>
<path fill="#FFF" d="m453.5,258.8c6.134,0.0714,11.75,0.4458,16.85,1.123,5.099,0.6419,9.093,1.462,11.98,2.461,1.355-1.07,2.835-2.247,4.44-3.53,1.605-1.319,2.942-2.657,4.012-4.012,1.712-2.175,2.567-5.046,2.568-8.612-0.0001-3.209-0.7668-5.884-2.3-8.024-2.746-3.994-6.918-5.991-12.52-5.991-3.352,0.00008-6.793,0.6955-10.32,2.086-3.103,1.248-5.456,2.639-7.061,4.172-2.996,2.996-5.206,6.847-6.633,11.55-0.4993,1.676-0.8024,3.21-0.9093,4.6-0.0714,1.355-0.107,2.746-0.107,4.172"/>
<path fill="#000" d="m453.5,221.1-3.798,0,0-7.007-4.44,0c-1.213,0.00008-1.819-0.5883-1.819-1.765v-0.0535c-0.00006-1.177,0.6062-1.765,1.819-1.765h4.44v-4.547c-0.00006-1.248,0.6418-1.872,1.926-1.872,1.248,0.0001,1.872,0.6242,1.872,1.872v4.547h4.6c1.177,0.00008,1.765,0.5885,1.765,1.765v0.0535c-0.00006,1.177-0.5885,1.765-1.765,1.765l-4.547,0.0535-0.0535,6.954"/>
</g>
</g>
</svg>
