<!-- Created with Inkscape (http://www.inkscape.org/) -->
<svg xmlns:rdf="http://www.w3.org/1999/02/22-rdf-syntax-ns#" xmlns="http://www.w3.org/2000/svg" height="110" width="110" version="1.1" xmlns:cc="http://creativecommons.org/ns#" xmlns:dc="http://purl.org/dc/elements/1.1/">
<metadata>
<rdf:RDF>
<cc:Work rdf:about="">
<dc:format>image/svg+xml</dc:format>
<dc:type rdf:resource="http://purl.org/dc/dcmitype/StillImage"/>
<dc:title/>
</cc:Work>
</rdf:RDF>
</metadata>
<g transform="translate(-329.42584,-467.34795)">
<g transform="translate(233.79867,273.74656)">
<path fill="#000" d="m153.5,213.7c5.599,0.3567,10.79,1.801,15.57,4.333,4.778,2.532,8.844,5.777,12.2,9.735,2.354,2.782,4.564,6.134,6.633,10.06,2.104,3.923,3.78,8.077,5.028,12.46,1.426,5.099,2.318,10.47,2.675,16.1,0.3922,5.599,0.5883,10.79,0.5884,15.57v11.66c-0.0001,0.00002-2.782,0.00002-8.345,0-5.527,0.00002-12.71,0.00002-21.56,0h-35.89c-0.321,0.00002-0.4814-0.8737-0.4814-2.621,0.0356-1.747,0.1604-3.156,0.3744-4.226,0.1426-0.8558,0.4814-2.068,1.016-3.637,0.5349-1.569,1.426-3.477,2.675-5.724,0.5705-1.141,1.926-2.799,4.065-4.975,2.14-2.211,4.6-4.761,7.382-7.649,1.605-1.64,2.853-3.709,3.744-6.205,0.9271-2.496,1.319-4.761,1.177-6.793-1.32,1.07-2.764,1.944-4.333,2.621-7.56,2.71-13.03,6.633-16.42,11.77-0.2497,0.321-1.052,1.765-2.407,4.333-0.7132,1.355-1.319,2.282-1.819,2.782-0.6776,0.6776-1.658,1.052-2.942,1.123-1.997,0.107-3.548-0.8558-4.654-2.889-1.498,0.428-2.835,0.6063-4.012,0.5349-1.997-0.7488-3.441-1.551-4.333-2.407-1.819-1.819-3.013-3.637-3.584-5.456-0.5349-1.819-0.8024-3.78-0.8024-5.884,0-2.995,1.854-6.954,5.563-11.87,4.351-5.67,6.668-9.985,6.954-12.94-0.00002-1.284,0.1248-2.728,0.3744-4.333,0.214-1.105,0.6597-2.175,1.337-3.209,0.4636-0.7131,0.7667-1.195,0.9093-1.444,0.1783-0.2852,0.4814-0.6953,0.9094-1.23,0.3209-0.4278,0.5884-0.7488,0.8024-0.9628,0.2139-0.2495,0.4814-0.5705,0.8024-0.9628,0.3922-0.4635,0.8915-0.9984,1.498-1.605-1.89-5.206-2.657-10.57-2.3-16.1,7.096,2.532,13.05,6.508,17.87,11.93,1.177-4.03,3.495-7.292,6.954-9.789,2.853,1.997,5.117,4.636,6.793,7.917"/>
<path fill="#FFF" d="m189.7,289.8c-0.0358,0-0.0001-0.9628,0.107-2.889,0.1069-1.961,0.1604-4.065,0.1605-6.312,0.0356-4.458,0.0356-9.058,0-13.8-0.0358-4.778-0.6777-9.539-1.926-14.28-1.213-4.564-2.55-8.451-4.012-11.66-1.462-3.245-3.049-6.044-4.761-8.398-2.568-3.851-6.062-7.114-10.48-9.789-4.422-2.674-9.04-4.422-13.85-5.242,0.3209,1.747,0.4635,3.459,0.4279,5.135-0.0714,1.284-0.6776,1.926-1.819,1.926-1.32,0.00007-1.908-0.6418-1.765-1.926,0.1069-4.707-1.569-8.737-5.028-12.09-2.71,2.853-4.172,6.169-4.386,9.949-0.0714,1.248-0.7133,1.801-1.926,1.658-1.141-0.0356-1.712-0.6953-1.712-1.979-0.00004,0.00007,0.0356-0.1426,0.107-0.4279-1.462,0.4637-2.996,1.123-4.6,1.979-1.034,0.7133-1.872,0.535-2.514-0.5349-0.6419-1.07-0.3566-1.908,0.8558-2.514,1.533-0.7844,2.692-1.373,3.477-1.765-3.067-3.138-6.562-5.67-10.48-7.596,0.4279,4.957,1.783,9.646,4.065,14.07,0.6062,0.9273,0.4636,1.747-0.4279,2.461-0.9985,0.7846-1.837,0.6598-2.514-0.3744-0.2497-0.3565-0.6063-0.9984-1.07-1.926-0.7489,0.749-1.248,1.302-1.498,1.658-0.2496,0.321-0.6954,1.034-1.337,2.14-0.6063,1.106-1.052,2.015-1.337,2.728-0.321,0.8916-0.4636,1.623-0.4279,2.193,0.0713,0.535,0.1248,1.141,0.1605,1.819-0.321,2.104-1.052,4.083-2.193,5.937-1.106,1.854-2.532,4.119-4.279,6.793-1.676,2.568-2.96,4.493-3.851,5.777-0.8915,1.284-1.569,2.924-2.033,4.921-0.321,1.212-0.321,2.692,0,4.44,0.3209,1.712,1.016,3.049,2.086,4.012,1.64,1.676,3.227,2.443,4.761,2.3,0.4992,0.00004,1.159-0.1961,1.979-0.5884,0.8558-0.3922,1.516-1.141,1.979-2.247,0.9272-2.033,1.694-3.049,2.3-3.049,0.8915,0.00004,1.373,0.4993,1.444,1.498-0.00004,0.214-0.2853,1.106-0.8558,2.675-0.321,0.7132-0.7489,1.462-1.284,2.247-0.6776,0.9272-0.9807,1.319-0.9094,1.177,0.5706,2.033,1.516,2.389,2.835,1.07,0.3922-0.3922,0.838-1.123,1.337-2.193,0.4992-1.07,1.284-2.514,2.354-4.333,1.248-2.104,2.585-3.816,4.012-5.135,1.426-1.319,2.692-2.389,3.798-3.209,0.6418-0.4635,1.426-0.9984,2.354-1.605,0.9271-0.6062,2.175-1.23,3.744-1.872,1.248-0.4992,2.621-1.105,4.119-1.819,1.533-0.7488,2.888-1.694,4.065-2.835,1.64-1.605,2.906-3.584,3.798-5.937,0.4635-1.319,0.6418-2.942,0.5349-4.868-0.321-1.212,0.2852-1.819,1.819-1.819,1.141,0.00005,1.783,0.5885,1.926,1.765-0.00008,4.03-1.141,7.703-3.423,11.02,0.7488,2.282,0.9449,4.779,0.5884,7.489-0.321,2.175-1.088,4.511-2.3,7.007-1.177,2.461-3.584,5.206-7.221,8.238-7.382,6.134-10.88,12.45-10.48,18.94h9.093,17.17,29.26"/>
<path fill="#000" d="m117.2,257.3c-1.034,0.6419-1.658,1.498-1.872,2.568,0.0356,1.177-0.5171,1.819-1.658,1.926-1.248,0.1427-1.89-0.3922-1.926-1.605,0.1426-2.354,1.195-4.226,3.156-5.617,0.9272-0.7488,1.783-0.6775,2.568,0.214,0.7845,0.9629,0.6954,1.801-0.2675,2.514"/>
<path fill="#000" d="m133.1,231.8c0.4636,0.7133,0.6418,1.462,0.5349,2.247-0.3566,2.282-1.623,3.245-3.798,2.888-0.6419-0.1069-1.159-0.3209-1.551-0.6419-0.1427,0.1784-0.3566,0.5706-0.6419,1.177-0.3923,1.141-1.141,1.533-2.247,1.177-1.106-0.4279-1.533-1.23-1.284-2.407,1.605-4.101,4.511-6.918,8.719-8.452,1.212-0.3566,2.015,0.00008,2.407,1.07,0.4279,1.141,0.1069,1.926-0.9628,2.354-0.214,0.107-0.4101,0.214-0.5884,0.3209-0.1784,0.0714-0.3745,0.1606-0.5884,0.2674"/>
</g>
</g>
</svg>
