<!-- Created with Inkscape (http://www.inkscape.org/) -->
<svg xmlns:rdf="http://www.w3.org/1999/02/22-rdf-syntax-ns#" xmlns="http://www.w3.org/2000/svg" height="110" width="110" version="1.1" xmlns:cc="http://creativecommons.org/ns#" xmlns:dc="http://purl.org/dc/elements/1.1/">
<metadata>
<rdf:RDF>
<cc:Work rdf:about="">
<dc:format>image/svg+xml</dc:format>
<dc:type rdf:resource="http://purl.org/dc/dcmitype/StillImage"/>
<dc:title/>
</cc:Work>
</rdf:RDF>
</metadata>
<g transform="translate(-344.00209,-466.1444)">
<g transform="translate(348.00432,271.44645)">
<path fill="#000" d="m51.02,293.5-28.89,0c-1.426-3.566-2.14-7.293-2.14-11.18-0.000039-6.597,1.872-12.52,5.617-17.76,3.744-5.242,8.558-8.986,14.44-11.23-2.532-1.177-4.6-2.942-6.205-5.296-1.569-2.389-2.354-5.082-2.354-8.077-0.00002-3.744,1.248-6.989,3.744-9.735s5.563-4.333,9.2-4.761c-2.889-2.175-4.333-5.046-4.333-8.612-0.000059-2.995,1.052-5.563,3.156-7.703,2.14-2.14,4.725-3.209,7.756-3.209,2.995,0.0001,5.563,1.07,7.703,3.209,2.14,2.14,3.209,4.707,3.209,7.703-0.000078,3.566-1.444,6.437-4.333,8.612,3.637,0.428,6.704,2.015,9.2,4.761s3.744,5.991,3.744,9.735c-0.000078,2.996-0.8203,5.688-2.461,8.077-1.605,2.354-3.655,4.119-6.151,5.296,5.884,2.247,10.7,5.991,14.44,11.23,3.744,5.242,5.616,11.16,5.617,17.76-0.000078,3.851-0.6955,7.578-2.086,11.18h-28.89"/>
<path fill="#FFF" d="m51.02,289.8,26.26,0c0.7488-2.568,1.123-5.082,1.123-7.542-0.000078-5.563-1.551-10.61-4.654-15.14-3.067-4.529-7.025-7.863-11.87-10-2.354-0.1782-3.53-1.462-3.53-3.851-0.000079-1.89,1.195-3.281,3.584-4.172,3.316-2.318,4.975-5.385,4.975-9.2-0.000078-2.746-0.9273-5.153-2.782-7.221-1.854-2.068-4.101-3.263-6.74-3.584-2.14-0.1782-3.21-1.391-3.209-3.637-0.000059-0.9984,0.3922-1.926,1.177-2.782,1.926-1.498,2.888-3.459,2.888-5.884-0.000058-1.997-0.7133-3.709-2.14-5.135-1.426-1.426-3.12-2.14-5.082-2.14-2.033,0.00009-3.762,0.7133-5.189,2.14-1.391,1.427-2.086,3.138-2.086,5.135-0.000039,2.389,0.9628,4.351,2.888,5.884,0.7845,0.7846,1.177,1.712,1.177,2.782-0.000058,2.247-1.052,3.459-3.156,3.637-2.675,0.321-4.939,1.516-6.793,3.584-1.819,2.068-2.728,4.475-2.728,7.221-0.000039,3.816,1.658,6.883,4.975,9.2,2.389,0.9272,3.584,2.318,3.584,4.172-0.000058,2.389-1.195,3.673-3.584,3.851-4.85,2.14-8.808,5.474-11.87,10-3.067,4.529-4.6,9.575-4.6,15.14-0.00002,2.639,0.3744,5.153,1.123,7.542h26.26"/>
</g>
</g>
</svg>
