<!-- Created with Inkscape (http://www.inkscape.org/) -->
<svg xmlns:rdf="http://www.w3.org/1999/02/22-rdf-syntax-ns#" xmlns="http://www.w3.org/2000/svg" height="110" width="110" version="1.1" xmlns:cc="http://creativecommons.org/ns#" xmlns:dc="http://purl.org/dc/elements/1.1/">
<metadata>
<rdf:RDF>
<cc:Work rdf:about="">
<dc:format>image/svg+xml</dc:format>
<dc:type rdf:resource="http://purl.org/dc/dcmitype/StillImage"/>
<dc:title/>
</cc:Work>
</rdf:RDF>
</metadata>
<g transform="translate(-325.521,-468.15031)">
<g transform="translate(-170.51677,274.22798)">
<path fill="#000" d="m551,217.7c-2.033,0.00008-3.762-0.7131-5.189-2.14-1.391-1.426-2.086-3.156-2.086-5.189-0.00005-1.997,0.6953-3.709,2.086-5.135,1.426-1.426,3.156-2.14,5.189-2.14,1.997,0.0001,3.709,0.7133,5.135,2.14,1.462,1.427,2.193,3.138,2.193,5.135-0.00006,2.033-0.7311,3.762-2.193,5.189-1.426,1.426-3.138,2.14-5.135,2.14"/>
<path fill="#000" d="m583.9,289.3c-1.747,1.533-5.67,2.817-11.77,3.851-6.098,1.034-13.12,1.551-21.08,1.551-8.095,0.00002-15.21-0.5349-21.34-1.605-6.134-1.07-10-2.407-11.61-4.012l3.37-12.84-1.498-8.398-4.707-8.184-4.547-33.27,2.621-1.016,14.66,24.71,0.3209-29.42,3.637-0.6419,11.18,29.58,5.991-31.83h3.691l5.991,31.72,11.07-29.47,3.691,0.6419,0.321,29.42,14.71-24.77,2.514,1.177-4.44,33.11-4.761,8.184-1.498,8.505,3.477,13"/>
<path fill="#FFF" d="m551,214c2.389,0.0001,3.584-1.195,3.584-3.584-0.00005-2.353-1.195-3.53-3.584-3.53-2.354,0.0001-3.53,1.177-3.53,3.53-0.00006,2.389,1.177,3.584,3.53,3.584"/>
<path fill="#000" d="m528.5,220.4c-2.033,0.00009-3.762-0.6953-5.189-2.086-1.426-1.426-2.14-3.156-2.14-5.189-0.00002-1.997,0.7132-3.709,2.14-5.135,1.426-1.426,3.156-2.14,5.189-2.14,1.997,0.0001,3.709,0.7133,5.135,2.14s2.14,3.138,2.14,5.135c-0.00004,2.033-0.7132,3.762-2.14,5.189-1.426,1.391-3.138,2.086-5.135,2.086"/>
<path fill="#FFF" d="m578.2,267.9c-6.883-1.747-15.89-2.621-27.01-2.621-11.41,0.00004-20.52,0.8915-27.33,2.675l0.8024,5.135c6.954-1.64,15.8-2.461,26.53-2.461,10.66,0.00004,19.36,0.8024,26.1,2.407l0.9094-5.135"/>
<path fill="#FFF" d="m579.5,264.6,3.477-6.151c-1.712,0.6776-3.459,1.016-5.242,1.016-4.779,0.00006-8.594-1.943-11.45-5.83-2.14,1.783-4.529,2.675-7.168,2.675-3.423,0.00006-6.152-1.337-8.184-4.012-2.282,2.496-5.01,3.744-8.184,3.744-2.568,0.00006-4.921-0.8736-7.061-2.621-2.996,3.816-6.865,5.724-11.61,5.724-1.819,0.00006-3.62-0.3387-5.403-1.016l3.744,6.419c6.918-1.997,16.42-2.995,28.51-2.995,12.3,0.00004,21.82,1.016,28.56,3.049"/>
<path fill="#000" d="m573.5,220.4c-2.033,0.00009-3.762-0.6953-5.189-2.086-1.391-1.426-2.086-3.156-2.086-5.189-0.00006-1.997,0.6953-3.709,2.086-5.135,1.426-1.426,3.156-2.14,5.189-2.14,2.033,0.0001,3.762,0.7133,5.189,2.14,1.426,1.427,2.14,3.138,2.14,5.135-0.0001,2.033-0.7133,3.762-2.14,5.189-1.427,1.391-3.156,2.086-5.189,2.086"/>
<path fill="#FFF" d="m555.6,251.9-4.547-26.16-4.547,25.84c0.1069-0.0713,0.3566-0.2496,0.7489-0.5349,0.8202-1.605,2.068-2.407,3.744-2.407,1.819,0.00006,2.995,0.8024,3.53,2.407,0.2139,0.214,0.5705,0.4993,1.07,0.8559"/>
<path fill="#000" d="m508.8,226.3c-2.033,0.00008-3.762-0.6953-5.189-2.086-1.391-1.426-2.086-3.156-2.086-5.189,0-1.997,0.6954-3.709,2.086-5.135,1.426-1.462,3.156-2.193,5.189-2.193,2.033,0.00009,3.762,0.7311,5.189,2.193,1.426,1.427,2.14,3.138,2.14,5.135-0.00001,2.033-0.7132,3.762-2.14,5.189-1.426,1.391-3.156,2.086-5.189,2.086"/>
<path fill="#FFF" d="m570.4,252.9,0-24.77-8.826,24.28c0.6775-0.2496,1.248-0.5705,1.712-0.9628,0.7132-0.8915,1.676-1.337,2.888-1.337,1.426,0.00006,2.567,0.6241,3.423,1.872,0.1069,0.1427,0.2317,0.3032,0.3744,0.4814,0.1426,0.1427,0.2852,0.2853,0.4279,0.4279"/>
<path fill="#000" d="m593.2,226.3c-2.033,0.00008-3.762-0.6953-5.189-2.086-1.427-1.426-2.14-3.156-2.14-5.189-0.0001-1.997,0.7131-3.709,2.14-5.135,1.426-1.462,3.156-2.193,5.189-2.193,1.997,0.00009,3.709,0.7311,5.135,2.193,1.426,1.427,2.14,3.138,2.14,5.135-0.0001,2.033-0.7133,3.762-2.14,5.189-1.427,1.391-3.138,2.086-5.135,2.086"/>
<path fill="#FFF" d="m540.3,252.1-8.772-24.02,0,24.45c0.1069-0.1426,0.2674-0.3209,0.4814-0.5349,0.7132-1.498,1.89-2.247,3.53-2.247,1.355,0.00006,2.461,0.5706,3.316,1.712,0.9628,0.428,1.444,0.6419,1.444,0.6419"/>
<path fill="#FFF" d="m526.8,255.1-11.5-19.85,2.942,18.08c2.033,1.426,4.012,2.14,5.937,2.14,0.7488,0.00006,1.623-0.1248,2.621-0.3744"/>
<path fill="#FFF" d="m575.1,255.4c0.8201,0.2497,1.729,0.3745,2.728,0.3744,2.175,0.00006,4.208-0.6775,6.098-2.033l2.942-18.51-11.77,20.17"/>
<path fill="#FFF" d="m578.3,282.5-1.605-6.044c-6.99-1.533-15.55-2.3-25.68-2.3-10.02,0.00002-18.56,0.7667-25.62,2.3l-1.658,6.098c6.633-1.997,15.74-2.995,27.33-2.995,11.3,0.00002,20.38,0.9807,27.23,2.942"/>
<path fill="#FFF" d="m579.6,287.4c-6.526-2.71-15.99-4.065-28.4-4.065-12.66,0.00002-22.23,1.391-28.72,4.172,6.241,2.461,15.76,3.691,28.56,3.691,6.134,0.00002,11.73-0.3388,16.8-1.016,5.099-0.6775,9.022-1.605,11.77-2.782"/>
<path fill="#FFF" d="m528.5,216.7c2.354,0.0001,3.53-1.177,3.53-3.53-0.00004-2.353-1.177-3.53-3.53-3.53-2.389,0.00008-3.584,1.177-3.584,3.53-0.00002,2.354,1.195,3.53,3.584,3.53"/>
<path fill="#FFF" d="m573.5,216.7c2.389,0.0001,3.584-1.177,3.584-3.53-0.00008-2.353-1.195-3.53-3.584-3.53-2.354,0.00008-3.53,1.177-3.53,3.53-0.00006,2.354,1.177,3.53,3.53,3.53"/>
<path fill="#FFF" d="m508.8,222.6c2.389,0.00009,3.584-1.177,3.584-3.53-0.00002-2.389-1.195-3.584-3.584-3.584-2.354,0.0001-3.53,1.195-3.53,3.584,0,2.354,1.177,3.53,3.53,3.53"/>
<path fill="#FFF" d="m593.2,222.6c2.353,0.00009,3.53-1.177,3.53-3.53-0.0001-2.389-1.177-3.584-3.53-3.584-2.389,0.0001-3.584,1.195-3.584,3.584-0.0001,2.354,1.195,3.53,3.584,3.53"/>
</g>
</g>
</svg>
