<!-- Created with Inkscape (http://www.inkscape.org/) -->
<svg xmlns:rdf="http://www.w3.org/1999/02/22-rdf-syntax-ns#" xmlns="http://www.w3.org/2000/svg" height="110" width="110" version="1.1" xmlns:cc="http://creativecommons.org/ns#" xmlns:dc="http://purl.org/dc/elements/1.1/">
<metadata>
<rdf:RDF>
<cc:Work rdf:about="">
<dc:format>image/svg+xml</dc:format>
<dc:type rdf:resource="http://purl.org/dc/dcmitype/StillImage"/>
<dc:title/>
</cc:Work>
</rdf:RDF>
</metadata>
<g transform="translate(-338.49252,-466.17115)">
<g transform="translate(43.419345,271.49995)">
<path fill="#000" d="m357.4,213.2,9.093,0,0-7.328,14.66,0,0,20.06-11.87,9.147,0,25.57,9.093,9.093,0,10.97,8.184,0,0,12.78-73.01,0,0-12.78,8.184,0,0-10.97,9.147-9.093,0-25.57-11.87-9.147,0-20.06,14.6,0,0,7.328,9.147,0,0-7.328,14.66,0,0,7.328"/>
<path fill="#FFF" d="m383,284.3-65.79,0,0,5.51,65.79,0,0-5.51"/>
<path fill="#FFF" d="m374.7,273.4-49.21,0,0,7.275,49.21,0,0-7.275"/>
<path fill="#FFF" d="m365.6,235.1-31.02,0,0,25.57,31.02,0,0-25.57"/>
<path fill="#FFF" d="m377.5,222.3,0-12.78-7.328,0,0,7.328-16.48,0,0-7.328-7.221,0,0,7.328-16.42,0,0-7.328-7.328,0,0,12.78,54.77,0"/>
<path fill="#FFF" d="m373.4,269.7-5.51-5.456-35.46,0-5.617,5.456,46.59,0"/>
<path fill="#FFF" d="m367.5,231.4,6.793-5.51-48.36,0,6.847,5.51,34.72,0"/>
</g>
</g>
</svg>
